<svg xmlns="http://www.w3.org/2000/svg" viewBox="0 0 27.531 30.643"><title>marcel_lavigne_howTo</title><g id="TEXTS"><path d="M12.1,6.511,9.221,5.738a1.08,1.08,0,0,0-.923.183.874.874,0,0,0-.339.594l-.32,1.192a.888.888,0,0,0,0,.7,1,1,0,0,0,.121.213c-.3.636-.653,1.42-1.019,2.291v0c-.319.762-.651,1.591-.979,2.446A4.812,4.812,0,0,0,2.8,16.517L.059,26.76a1.928,1.928,0,0,0,1.446,2.3l2.809.753h0l2.81.752a2.132,2.132,0,0,0,.552.074,2.02,2.02,0,0,0,.92-.219A1.774,1.774,0,0,0,9.528,29.3L9.9,27.888h0l2.367-8.833a4.812,4.812,0,0,0-.983-4.215c.206-1.3.377-2.548.5-3.629V11.2c.06-.541.108-1.04.141-1.479a1.03,1.03,0,0,0,.545-.66l.349-1.3A1.02,1.02,0,0,0,12.1,6.511Zm-3.02.43,2.538.68-.266.994h-.028l-.043.005-.015,0-.042.008-.013,0a.413.413,0,0,0-.05.015l-.016.007-.034.013-.019.01-.028.015-.019.011-.028.019-.016.011-.035.029-.006,0c-.013.012-.026.025-.038.038l-.008.009-.027.032-.01.014-.021.03-.01.017-.016.029-.011.02-.012.029-.009.022c0,.015-.01.03-.014.045a.523.523,0,0,0-.012.054l0,.012v.008c0,.018-.005.036-.006.054-.021.392-.059.852-.111,1.363H8.2c.309-.711.6-1.334.845-1.825.008-.015.015-.031.022-.048l0-.009,0-.009c.006-.019.012-.037.017-.055s.007-.031.01-.046l0-.022,0-.033V8.476c0-.012,0-.024,0-.035V8.422l0-.038,0-.015A.369.369,0,0,0,9.1,8.323V8.316a.461.461,0,0,0-.015-.053v0c0-.015-.011-.031-.017-.046L9.053,8.2l-.015-.031-.011-.019L9.01,8.12,9,8.1l-.021-.028-.012-.015c-.011-.013-.023-.025-.035-.038l-.012-.01-.03-.026-.014-.011L8.841,7.95l-.013-.008-.011-.007ZM6.215,14.488a.6.6,0,0,0,.544-.386c.311-.82.627-1.619.933-2.361h2.829c-.1.8-.222,1.682-.363,2.59l-.146-.039a.6.6,0,0,0-.31,1.156l.687.184a3.517,3.517,0,0,1,.819,2.517L4.177,16.265A3.367,3.367,0,0,1,6.215,14.488ZM8.9,27,1.748,25.082l2.057-7.677,7.157,1.917Zm-.85,2.357a.866.866,0,0,1-.62.056l-2.81-.753h0l-2.81-.753a.745.745,0,0,1-.6-.837l.223-.832L8.6,28.156l-.223.831A.6.6,0,0,1,8.054,29.357Z"/><path d="M7.985,14.988l.014,0a.583.583,0,0,0,.154.021.6.6,0,0,0,.154-1.177l-.014,0a.6.6,0,0,0-.308,1.157Z"/><path d="M8.309,21.074a2.257,2.257,0,1,0-2.538,3.308,2.255,2.255,0,0,0,2.763-1.6A2.243,2.243,0,0,0,8.309,21.074Zm-.931,1.4a1.06,1.06,0,0,1-1.022.785,1.078,1.078,0,0,1-.276-.036,1.06,1.06,0,0,1,.274-2.084,1.035,1.035,0,0,1,.275.037,1.059,1.059,0,0,1,.749,1.3Z"/><path d="M27.472,26.76,24.727,16.517a4.813,4.813,0,0,0-2.959-3.16c-.328-.855-.66-1.684-.979-2.446v0c-.365-.872-.713-1.655-1.019-2.291a1.048,1.048,0,0,0,.122-.213.892.892,0,0,0,0-.7l-.319-1.192a.879.879,0,0,0-.34-.594,1.076,1.076,0,0,0-.923-.182l-2.883.772a1.019,1.019,0,0,0-.72,1.247l.349,1.3a1.033,1.033,0,0,0,.545.66c.033.439.081.937.141,1.479l0,.011c.12,1.081.291,2.332.5,3.628a4.811,4.811,0,0,0-.982,4.215L18,29.3a1.774,1.774,0,0,0,.932,1.127,2.027,2.027,0,0,0,.92.219,2.132,2.132,0,0,0,.552-.074l5.62-1.5h0a2.068,2.068,0,0,0,1.2-.862A1.777,1.777,0,0,0,27.472,26.76Zm-10.9-7.438,7.157-1.917,2.057,7.677L18.626,27Zm4.747-4.834a3.368,3.368,0,0,1,2.037,1.777l-7.031,1.884a3.517,3.517,0,0,1,.819-2.517l.687-.184a.6.6,0,1,0-.31-1.156l-.146.039c-.141-.908-.263-1.786-.362-2.59h2.828c.306.742.622,1.541.933,2.361A.6.6,0,0,0,21.316,14.488ZM18.447,6.941l.266.994-.011.007-.013.008-.033.024-.014.011-.029.026-.012.011a.417.417,0,0,0-.036.037l-.012.016-.02.026-.013.02-.017.026-.011.019-.015.031-.007.017a.469.469,0,0,0-.018.045v0a.461.461,0,0,0-.015.053v.008a.354.354,0,0,0-.008.045l0,.015,0,.038v.019c0,.012,0,.023,0,.035V8.5l0,.033,0,.022c0,.016.007.032.011.048a.458.458,0,0,0,.015.049l0,.014,0,0c.007.018.015.035.023.052.248.491.536,1.113.846,1.824H16.875c-.051-.511-.089-.971-.111-1.363a.543.543,0,0,0-.006-.055V9.119l0-.012a.487.487,0,0,0-.012-.052.368.368,0,0,0-.015-.047l-.008-.02-.013-.031-.01-.019-.017-.031-.01-.016-.021-.03-.01-.014a.4.4,0,0,0-.026-.032L16.6,8.806a.431.431,0,0,0-.037-.037l-.014-.012-.026-.021L16.5,8.72l-.019-.013-.027-.016-.016-.008-.032-.016-.01,0a.548.548,0,0,0-.113-.035l-.022-.005-.027,0-.031,0-.021,0h-.011l-.266-.994Zm7.778,20.608a.869.869,0,0,1-.509.358h0L20.1,29.413a.869.869,0,0,1-.621-.056.59.59,0,0,1-.317-.37l-.223-.831,7.157-1.918.222.832A.592.592,0,0,1,26.225,27.549Z"/><path d="M19.237,13.831l-.014,0a.6.6,0,0,0,.154,1.177.59.59,0,0,0,.155-.021l.014,0a.6.6,0,1,0-.309-1.157Z"/><path d="M23.355,21.618a2.258,2.258,0,0,0-2.178-1.673A2.258,2.258,0,0,0,19,22.786a2.26,2.26,0,0,0,2.179,1.673h0a2.275,2.275,0,0,0,.585-.077,2.256,2.256,0,0,0,1.595-2.764Zm-1.261,1.114a1.06,1.06,0,0,1-.919.53h0a1.059,1.059,0,0,1-.917-1.589,1.05,1.05,0,0,1,.644-.494,1.072,1.072,0,0,1,.275-.037,1.061,1.061,0,0,1,.917,1.59Z"/><path d="M13.765,0a.6.6,0,0,0-.6.6V2.2a.6.6,0,1,0,1.2,0V.6A.6.6,0,0,0,13.765,0Z"/><path d="M10.731,3.61a.6.6,0,0,0,.517.295.592.592,0,0,0,.3-.082A.6.6,0,0,0,11.764,3L10.95,1.617a.6.6,0,0,0-1.033.605Z"/><path d="M15.98,3.823A.6.6,0,0,0,16.8,3.61l.814-1.388a.6.6,0,1,0-1.032-.6L15.767,3A.6.6,0,0,0,15.98,3.823Z"/></g></svg>