<svg xmlns="http://www.w3.org/2000/svg" viewBox="0 0 26.673 28.641"><title>marcel_lavigne_howTo</title><g id="TEXTS"><path d="M.353,24.43l4.976,2a.548.548,0,0,0,.209.041.562.562,0,0,0,.209-1.083L3.78,24.6l3-7.481a3.107,3.107,0,0,0,3.635-1.86l2.316-5.768h0l.164-.41,3.354,8.352a3.109,3.109,0,0,0,3.636,1.859l3,7.481-1.967.79a.562.562,0,1,0,.419,1.042l4.976-2A.562.562,0,1,0,25.9,25.56l-1.967.79-3-7.482a3.11,3.11,0,0,0,1.34-3.857l-1.589-3.957,0-.006-.514-1.28a.561.561,0,1,0-1.042.418l.209.52H14.766L13.714,8.087l3.934-1.58.175.437a.561.561,0,1,0,1.042-.418l-.384-.958a.561.561,0,0,0-.731-.312L13.8,6.843l.414-1.031a.561.561,0,0,0-.312-.73l-4.976-2a.56.56,0,0,0-.73.311L5.924,9.047l0,.009L4.4,12.839A3.109,3.109,0,0,0,5.742,16.7l-3,7.481L.771,23.388A.561.561,0,1,0,.353,24.43Zm19.432-12.6,1.445,3.6a1.986,1.986,0,0,1-1.1,2.583l-.12.049H20l-.12.049a1.99,1.99,0,0,1-2.584-1.1L15.217,11.83ZM9.026,4.335l3.933,1.58L11.838,8.707H7.271ZM5.444,13.257,6.82,9.83h4.567l-2.01,5.007a1.985,1.985,0,0,1-2.584,1.1l-.1-.04L6.68,15.9h0l-.008,0-.123-.05a1.985,1.985,0,0,1-1.1-2.584Z"/><path id="SVGCleanerId_0" data-name="SVGCleanerId 0" d="M9.287,11.971a.562.562,0,0,0,0-1.123A.562.562,0,0,0,9.287,11.971Z"/><path id="SVGCleanerId_1" data-name="SVGCleanerId 1" d="M7.288,14.127a.562.562,0,0,0,0-1.124A.562.562,0,0,0,7.288,14.127Z"/><path id="SVGCleanerId_2" data-name="SVGCleanerId 2" d="M17.525,12.83a.562.562,0,0,0,0,1.123A.562.562,0,0,0,17.525,12.83Z"/><path id="SVGCleanerId_3" data-name="SVGCleanerId 3" d="M19.646,15.152a.562.562,0,0,0,0-1.123A.562.562,0,0,0,19.646,15.152Z"/><path id="SVGCleanerId_4" data-name="SVGCleanerId 4" d="M18.394,17.081a.562.562,0,0,0,0-1.123A.562.562,0,0,0,18.394,17.081Z"/><path d="M13.928,0a.561.561,0,0,0-.562.562V1.921a.562.562,0,0,0,1.123,0V.562A.561.561,0,0,0,13.928,0Z"/><path d="M10.981.769a.562.562,0,0,0-.192.771l.7,1.164a.56.56,0,0,0,.481.272.552.552,0,0,0,.289-.081.562.562,0,0,0,.192-.771L11.751.96A.561.561,0,0,0,10.981.769Z"/><path d="M16.875.769A.562.562,0,0,0,16.1.96l-.7,1.164a.562.562,0,0,0,.192.771.552.552,0,0,0,.289.081.56.56,0,0,0,.481-.272l.7-1.164A.562.562,0,0,0,16.875.769Z"/><path id="SVGCleanerId_5" data-name="SVGCleanerId 5" d="M18.924,7.694a.562.562,0,0,0,0,1.123A.562.562,0,0,0,18.924,7.694Z"/><path d="M.353,24.43l4.976,2a.548.548,0,0,0,.209.041.562.562,0,0,0,.209-1.083L3.78,24.6l3-7.481a3.107,3.107,0,0,0,3.635-1.86l2.316-5.768h0l.164-.41,3.354,8.352a3.109,3.109,0,0,0,3.636,1.859l3,7.481-1.967.79a.562.562,0,1,0,.419,1.042l4.976-2A.562.562,0,1,0,25.9,25.56l-1.967.79-3-7.482a3.11,3.11,0,0,0,1.34-3.857l-1.589-3.957,0-.006-.514-1.28a.561.561,0,1,0-1.042.418l.209.52H14.766L13.714,8.087l3.934-1.58.175.437a.561.561,0,1,0,1.042-.418l-.384-.958a.561.561,0,0,0-.731-.312L13.8,6.843l.414-1.031a.561.561,0,0,0-.312-.73l-4.976-2a.56.56,0,0,0-.73.311L5.924,9.047l0,.009L4.4,12.839A3.109,3.109,0,0,0,5.742,16.7l-3,7.481L.771,23.388A.561.561,0,1,0,.353,24.43Zm19.432-12.6,1.445,3.6a1.986,1.986,0,0,1-1.1,2.583l-.12.049H20l-.12.049a1.99,1.99,0,0,1-2.584-1.1L15.217,11.83ZM9.026,4.335l3.933,1.58L11.838,8.707H7.271ZM5.444,13.257,6.82,9.83h4.567l-2.01,5.007a1.985,1.985,0,0,1-2.584,1.1l-.1-.04L6.68,15.9h0l-.008,0-.123-.05a1.985,1.985,0,0,1-1.1-2.584Z"/><path id="SVGCleanerId_0-2" data-name="SVGCleanerId 0" d="M9.287,11.971a.562.562,0,0,0,0-1.123A.562.562,0,0,0,9.287,11.971Z"/><path id="SVGCleanerId_1-2" data-name="SVGCleanerId 1" d="M7.288,14.127a.562.562,0,0,0,0-1.124A.562.562,0,0,0,7.288,14.127Z"/><path id="SVGCleanerId_2-2" data-name="SVGCleanerId 2" d="M17.525,12.83a.562.562,0,0,0,0,1.123A.562.562,0,0,0,17.525,12.83Z"/><path id="SVGCleanerId_3-2" data-name="SVGCleanerId 3" d="M19.646,15.152a.562.562,0,0,0,0-1.123A.562.562,0,0,0,19.646,15.152Z"/><path id="SVGCleanerId_4-2" data-name="SVGCleanerId 4" d="M18.394,17.081a.562.562,0,0,0,0-1.123A.562.562,0,0,0,18.394,17.081Z"/><path d="M13.928,0a.561.561,0,0,0-.562.562V1.921a.562.562,0,0,0,1.123,0V.562A.561.561,0,0,0,13.928,0Z"/><path d="M10.981.769a.562.562,0,0,0-.192.771l.7,1.164a.56.56,0,0,0,.481.272.552.552,0,0,0,.289-.081.562.562,0,0,0,.192-.771L11.751.96A.561.561,0,0,0,10.981.769Z"/><path d="M16.875.769A.562.562,0,0,0,16.1.96l-.7,1.164a.562.562,0,0,0,.192.771.552.552,0,0,0,.289.081.56.56,0,0,0,.481-.272l.7-1.164A.562.562,0,0,0,16.875.769Z"/><path id="SVGCleanerId_5-2" data-name="SVGCleanerId 5" d="M18.924,7.694a.562.562,0,0,0,0,1.123A.562.562,0,0,0,18.924,7.694Z"/></g></svg>