<svg xmlns="http://www.w3.org/2000/svg" viewBox="0 0 122.414 45.9"><defs><style>.cls-1{fill:#607d8b;}</style></defs><title>marcel_lavigne_howTo</title><g id="TEXTS"><path class="cls-1" d="M10.574,24.271a1.122,1.122,0,0,0-1,.729L5.829,32.168,2.067,25a1.14,1.14,0,0,0-1.033-.729.984.984,0,0,0-.754.3,1.1,1.1,0,0,0-.28.788V35.388a1.042,1.042,0,0,0,.254.745.906.906,0,0,0,.7.271.919.919,0,0,0,.7-.279,1.034,1.034,0,0,0,.263-.737v-6.9l2.9,5.372a1.56,1.56,0,0,0,.44.559.938.938,0,0,0,.56.169.906.906,0,0,0,.559-.178,1.683,1.683,0,0,0,.44-.55l2.881-5.457v6.982a1.047,1.047,0,0,0,.254.745.906.906,0,0,0,.7.271.962.962,0,0,0,.712-.271,1.008,1.008,0,0,0,.271-.745V25.356a1.078,1.078,0,0,0-.289-.788A1.011,1.011,0,0,0,10.574,24.271Z"/><path class="cls-1" d="M17.233,27.813A7.314,7.314,0,0,0,15.615,28a5.545,5.545,0,0,0-1.415.509,1.366,1.366,0,0,0-.483.4.868.868,0,0,0-.144.5.837.837,0,0,0,.2.576.636.636,0,0,0,.5.22,1.689,1.689,0,0,0,.644-.22q.694-.272,1.2-.415a3.657,3.657,0,0,1,1-.144,1.514,1.514,0,0,1,1.152.381,1.735,1.735,0,0,1,.356,1.211v.39H18.2a13.817,13.817,0,0,0-2.9.237,2.808,2.808,0,0,0-1.517.763,2.092,2.092,0,0,0-.466,1.441,2.352,2.352,0,0,0,.39,1.321,2.677,2.677,0,0,0,1.067.932,3.327,3.327,0,0,0,1.509.339,2.712,2.712,0,0,0,1.431-.373,2.207,2.207,0,0,0,.907-1.033v.373a.943.943,0,0,0,.28.711.989.989,0,0,0,.72.272,1.029,1.029,0,0,0,.746-.263.96.96,0,0,0,.271-.72V31.27a3.586,3.586,0,0,0-.839-2.6A3.454,3.454,0,0,0,17.233,27.813Zm1.39,5.067a2.056,2.056,0,0,1-.534,1.466,1.811,1.811,0,0,1-1.381.567,1.345,1.345,0,0,1-.94-.347,1.153,1.153,0,0,1-.382-.89.907.907,0,0,1,.272-.7,1.713,1.713,0,0,1,.9-.356,11.671,11.671,0,0,1,1.762-.1h.3Z"/><path class="cls-1" d="M27.723,28.033a.764.764,0,0,0-.124-.064.958.958,0,0,0-.571-.122l-.237.017a2.924,2.924,0,0,0-1.415.457,2.506,2.506,0,0,0-.958,1.153V28.8a.9.9,0,0,0-.271-.7,1.018,1.018,0,0,0-.711-.246,1.1,1.1,0,0,0-.738.254.906.906,0,0,0-.3.728v6.559a.95.95,0,0,0,.3.753,1.092,1.092,0,0,0,.755.263,1.123,1.123,0,0,0,.762-.263.939.939,0,0,0,.3-.753V31.829a2.214,2.214,0,0,1,.466-1.44,2.059,2.059,0,0,1,1.466-.678l.508-.051a1.593,1.593,0,0,0,.639-.2.878.878,0,0,0,.158-.093.928.928,0,0,0,.22-.678A.829.829,0,0,0,27.723,28.033Z"/><path class="cls-1" d="M34.552,34a.976.976,0,0,0-.373.076,3.451,3.451,0,0,0-.44.229A6.256,6.256,0,0,1,33,34.65a2.078,2.078,0,0,1-.753.128,2.021,2.021,0,0,1-1.472-.546,1.626,1.626,0,0,1-.147-.141,2.99,2.99,0,0,1-.567-1.957,3.022,3.022,0,0,1,.567-1.974,1.626,1.626,0,0,1,.147-.141,2.02,2.02,0,0,1,1.472-.545,2.229,2.229,0,0,1,.779.126,4.59,4.59,0,0,1,.712.348,3.282,3.282,0,0,0,.407.2,1,1,0,0,0,.389.085A.562.562,0,0,0,35,30.007a.949.949,0,0,0,.178-.6,1.049,1.049,0,0,0-.542-.9A4.407,4.407,0,0,0,33.459,28a4.951,4.951,0,0,0-1.33-.186A4.85,4.85,0,0,0,30.776,28a4.065,4.065,0,0,0-.867.353,3.775,3.775,0,0,0-1.5,1.534,5.187,5.187,0,0,0-.025,4.533,3.579,3.579,0,0,0,1.449,1.491,3.977,3.977,0,0,0,.943.372,4.873,4.873,0,0,0,1.234.153,5.288,5.288,0,0,0,1.424-.194,4.484,4.484,0,0,0,1.22-.535,1.131,1.131,0,0,0,.415-.381.96.96,0,0,0,.127-.5.932.932,0,0,0-.186-.593A.566.566,0,0,0,34.552,34Z"/><path class="cls-1" d="M43.482,31.812a4.6,4.6,0,0,0-.458-2.118,3.336,3.336,0,0,0-1.287-1.39,3.762,3.762,0,0,0-1.949-.491,4.06,4.06,0,0,0-2.093.542,3.7,3.7,0,0,0-1.432,1.525,4.836,4.836,0,0,0-.508,2.254,4.226,4.226,0,0,0,1.169,3.152,4.32,4.32,0,0,0,3.169,1.152,5.406,5.406,0,0,0,1.389-.194,5.649,5.649,0,0,0,1.3-.518,1.026,1.026,0,0,0,.627-.881.915.915,0,0,0-.178-.593.568.568,0,0,0-.465-.22,1.863,1.863,0,0,0-.746.271,9.713,9.713,0,0,1-.941.373,3.1,3.1,0,0,1-.957.135,2.225,2.225,0,0,1-1.627-.55,2.669,2.669,0,0,1-.661-1.72h5Q43.482,32.541,43.482,31.812Zm-5.643-.407a2.56,2.56,0,0,1,.619-1.559,1.819,1.819,0,0,1,1.381-.542,1.679,1.679,0,0,1,1.322.534,2.419,2.419,0,0,1,.508,1.567Z"/><path class="cls-1" d="M45.872,24.271a1.121,1.121,0,0,0-.755.254.928.928,0,0,0-.3.746V35.388a.95.95,0,0,0,.3.753,1.092,1.092,0,0,0,.755.263,1.123,1.123,0,0,0,.762-.263.939.939,0,0,0,.3-.753V25.271a.917.917,0,0,0-.3-.746A1.153,1.153,0,0,0,45.872,24.271Z"/><path class="cls-1" d="M72.679,34.506H67.917v-9.15a1.066,1.066,0,0,0-.3-.788,1.09,1.09,0,0,0-.806-.3,1.02,1.02,0,0,0-1.084,1.085v9.93a1.008,1.008,0,0,0,.271.746,1.036,1.036,0,0,0,.763.271h5.914q1.015,0,1.016-.9T72.679,34.506Z"/><path class="cls-1" d="M80.72,28.668a3.455,3.455,0,0,0-2.568-.855A7.322,7.322,0,0,0,76.533,28a5.523,5.523,0,0,0-1.414.509,1.357,1.357,0,0,0-.483.4.868.868,0,0,0-.145.5.838.838,0,0,0,.2.576.635.635,0,0,0,.5.22,1.691,1.691,0,0,0,.643-.22c.464-.181.864-.319,1.2-.415a3.657,3.657,0,0,1,1-.144,1.518,1.518,0,0,1,1.153.381,1.735,1.735,0,0,1,.356,1.211v.39h-.424a13.834,13.834,0,0,0-2.9.237,2.812,2.812,0,0,0-1.517.763,2.1,2.1,0,0,0-.466,1.441,2.352,2.352,0,0,0,.39,1.321,2.68,2.68,0,0,0,1.068.932,3.32,3.32,0,0,0,1.508.339,2.715,2.715,0,0,0,1.432-.373,2.212,2.212,0,0,0,.907-1.033v.373a.946.946,0,0,0,.279.711.991.991,0,0,0,.72.272,1.058,1.058,0,0,0,.642-.2,1,1,0,0,0,.1-.064.956.956,0,0,0,.271-.72V31.27a4.39,4.39,0,0,0-.375-1.9A2.562,2.562,0,0,0,80.72,28.668ZM79.542,32.88a2.06,2.06,0,0,1-.534,1.466,1.812,1.812,0,0,1-1.381.567,1.344,1.344,0,0,1-.94-.347,1.15,1.15,0,0,1-.382-.89.91.91,0,0,1,.271-.7,1.717,1.717,0,0,1,.9-.356,11.647,11.647,0,0,1,1.761-.1h.306Z"/><path class="cls-1" d="M89.964,27.847a.878.878,0,0,0-.5.152,1.037,1.037,0,0,0-.364.458l-2.356,5.219-2.008-4.433-.364-.8a.944.944,0,0,0-.9-.593,1.151,1.151,0,0,0-.754.271.824.824,0,0,0-.33.661.847.847,0,0,0,.084.389l2.262,4.707.89,1.851a1.085,1.085,0,0,0,.449.492,1.238,1.238,0,0,0,.618.17,1.18,1.18,0,0,0,.619-.17,1.113,1.113,0,0,0,.432-.492l3.135-6.558a.909.909,0,0,0,.1-.406.82.82,0,0,0-.313-.653A1.066,1.066,0,0,0,89.964,27.847Z"/><path class="cls-1" d="M92.9,24.085a1.315,1.315,0,0,0-.916.3,1.038,1.038,0,0,0-.338.813,1.066,1.066,0,0,0,.338.822,1.492,1.492,0,0,0,1.831,0,1.07,1.07,0,0,0,.338-.822,1.029,1.029,0,0,0-.347-.813A1.319,1.319,0,0,0,92.9,24.085Z"/><path class="cls-1" d="M92.9,27.847a1.117,1.117,0,0,0-.754.254.924.924,0,0,0-.3.746v6.541a.947.947,0,0,0,.3.753,1.088,1.088,0,0,0,.754.263,1.125,1.125,0,0,0,.762-.263.939.939,0,0,0,.3-.753V28.847a.916.916,0,0,0-.3-.746A1.155,1.155,0,0,0,92.9,27.847Z"/><path class="cls-1" d="M102.774,27.847a1.065,1.065,0,0,0-.762.271.929.929,0,0,0-.288.711v.441a2.594,2.594,0,0,0-1.085-1.076,3.392,3.392,0,0,0-1.626-.381,3.644,3.644,0,0,0-1.933.516,3.468,3.468,0,0,0-1.312,1.458,4.787,4.787,0,0,0-.467,2.161,4.68,4.68,0,0,0,.474,2.151,3.554,3.554,0,0,0,1.314,1.45,3.6,3.6,0,0,0,1.924.516,3.392,3.392,0,0,0,1.626-.381,2.594,2.594,0,0,0,1.085-1.076v1.085a1.94,1.94,0,0,1-2.22,2.169,4.133,4.133,0,0,1-1.11-.136,9.492,9.492,0,0,1-1.093-.39q-.237-.1-.458-.177a1.151,1.151,0,0,0-.372-.077.568.568,0,0,0-.466.221.911.911,0,0,0-.179.592,1.065,1.065,0,0,0,.627.9,6.231,6.231,0,0,0,3.084.7,4.574,4.574,0,0,0,3.2-1,3.816,3.816,0,0,0,1.085-2.949V28.847a.953.953,0,0,0-.288-.729A1.066,1.066,0,0,0,102.774,27.847Zm-1.618,5.914a2.22,2.22,0,0,1-3.161,0,3.168,3.168,0,0,1,0-3.643,2.218,2.218,0,0,1,3.161,0,3.2,3.2,0,0,1,0,3.643Z"/><path class="cls-1" d="M110.434,27.813a3.421,3.421,0,0,0-1.61.372,2.88,2.88,0,0,0-1.136,1.068V28.8a.9.9,0,0,0-.279-.687,1.01,1.01,0,0,0-.721-.262,1.088,1.088,0,0,0-.779.271.932.932,0,0,0-.288.711v6.559a.989.989,0,0,0,.279.745,1.063,1.063,0,0,0,.772.271,1.09,1.09,0,0,0,.779-.271.969.969,0,0,0,.288-.745V31.609a2.139,2.139,0,0,1,.551-1.542,1.93,1.93,0,0,1,1.466-.576,1.4,1.4,0,0,1,1.143.44,2.191,2.191,0,0,1,.365,1.406v4.051a.969.969,0,0,0,.288.745,1.09,1.09,0,0,0,.779.271,1.063,1.063,0,0,0,.772-.271.989.989,0,0,0,.279-.745V31.219a3.842,3.842,0,0,0-.729-2.559A2.766,2.766,0,0,0,110.434,27.813Z"/><path class="cls-1" d="M121.7,34.032a1.865,1.865,0,0,0-.745.271,9.807,9.807,0,0,1-.94.373,3.108,3.108,0,0,1-.958.135,2.226,2.226,0,0,1-1.627-.55,2.675,2.675,0,0,1-.661-1.72h5q.642,0,.643-.729a4.609,4.609,0,0,0-.457-2.118,3.344,3.344,0,0,0-1.288-1.39,3.762,3.762,0,0,0-1.949-.491,4.06,4.06,0,0,0-2.093.542A3.706,3.706,0,0,0,115.2,29.88a4.836,4.836,0,0,0-.508,2.254,4.222,4.222,0,0,0,1.169,3.152,4.318,4.318,0,0,0,3.169,1.152,5.419,5.419,0,0,0,1.39-.194,5.685,5.685,0,0,0,1.3-.518,1.028,1.028,0,0,0,.627-.881.916.916,0,0,0-.179-.593A.568.568,0,0,0,121.7,34.032Zm-4.312-4.186a1.818,1.818,0,0,1,1.381-.542,1.678,1.678,0,0,1,1.322.534,2.419,2.419,0,0,1,.508,1.567h-3.83A2.56,2.56,0,0,1,117.39,29.846Z"/><path class="cls-1" d="M77.988,15.364a8.087,8.087,0,0,0-8.917,2.3L66.9,19.837a.98.98,0,0,1-1.21.143,1.076,1.076,0,0,1-.459-.993l.015-.3a.98.98,0,0,1,.372-.72l2.143-1.691a.91.91,0,0,0,.345-.713V13.839a10.961,10.961,0,0,0-3.295-7.925,5.482,5.482,0,0,0-1.1-.852A.909.909,0,0,0,62.974,5l-1.641.562A10.137,10.137,0,0,0,56.968.148l-.005,0L56.942.13a.742.742,0,0,0-.135-.053.905.905,0,0,0-.18-.07.926.926,0,0,0-.19,0,1.024,1.024,0,0,0-.157,0,.93.93,0,0,0-.2.079.761.761,0,0,0-.117.045l-.018.013-.009.006a10.138,10.138,0,0,0-4.363,5.412L49.93,5a.9.9,0,0,0-.732.063,5.417,5.417,0,0,0-1.1.852A10.961,10.961,0,0,0,44.8,13.839v1.725a.908.908,0,0,0,.693.883l.37.089a.977.977,0,0,1,.25.607l.016.3a1.078,1.078,0,0,1-.459.992.983.983,0,0,1-1.212-.143l-.626-.627a8.089,8.089,0,0,0-8.917-2.3.908.908,0,0,0-.63.972l.661,5.64h1.858L36.182,16.9a6.213,6.213,0,0,1,6.247,1.913.812.812,0,0,0,.082.094l.664.665A2.81,2.81,0,0,0,46.6,20a2.871,2.871,0,0,0,1.346-2.649l-.015-.3A2.8,2.8,0,0,0,46.868,15a.9.9,0,0,0-.251-.14V13.839a9.134,9.134,0,0,1,2.734-6.611c.164-.157.3-.275.416-.365l2.167.743a.913.913,0,0,0,1.2-.772A7.482,7.482,0,0,1,56.452,2,7.491,7.491,0,0,1,59.77,6.828a.908.908,0,0,0,1.2.778l2.168-.743c.114.09.252.208.417.365a9.138,9.138,0,0,1,2.733,6.611v1.284l-1.8,1.419A2.8,2.8,0,0,0,63.428,18.6l-.015.3a2.868,2.868,0,0,0,1.347,2.648,2.808,2.808,0,0,0,3.422-.421l2.211-2.21a1.118,1.118,0,0,0,.079-.091,6.211,6.211,0,0,1,6.25-1.917l-.593,5.073h1.829l.66-5.64A.909.909,0,0,0,77.988,15.364Z"/><path class="cls-1" d="M69.065,40.655l-2.194,2.394a2.434,2.434,0,0,1-1.558.779l-2.457.243a2.439,2.439,0,0,1-2.529-3.266l1.052-2.869a.908.908,0,0,0-.2-.947l-3.116-3.195a4.224,4.224,0,0,0,2.612-3.9V26.152a.826.826,0,0,0,.02-.1c0-.42,0-1.535-4.233-1.535s-4.232,1.115-4.232,1.535c0,.008,0,.014,0,.022V29.9a4.225,4.225,0,0,0,2.611,3.9l-3.116,3.2a.908.908,0,0,0-.2.947l1.052,2.869a2.438,2.438,0,0,1-2.529,3.266l-2.457-.243a2.436,2.436,0,0,1-1.558-.779l-2.089-2.28.426-2.308H42.522l-.447,2.424a.9.9,0,0,0,.223.778l2.395,2.614a4.252,4.252,0,0,0,2.719,1.359l2.457.242c.143.014.286.022.428.022a4.256,4.256,0,0,0,3.985-5.721l-.855-2.331,3.025-3.1,3.025,3.1-.855,2.331A4.256,4.256,0,0,0,62.607,45.9c.142,0,.284-.008.428-.022l2.457-.242a4.247,4.247,0,0,0,2.718-1.359l2.4-2.614a.905.905,0,0,0,.234-.515l.292-2.687H69.3ZM53.953,29.9v-.639h2.614a.909.909,0,1,0,0-1.817H53.953v-.924a12.62,12.62,0,0,1,5,0V29.9a2.5,2.5,0,1,1-5,0Z"/></g></svg>