<svg id="BG" xmlns="http://www.w3.org/2000/svg" viewBox="0 0 59.882 68.003"><defs><style>.cls-1{fill:#263238;opacity:0.3;}.cls-2{fill:#ec407a;}.cls-3{fill:#fff;}</style></defs><title>marcel_lavigne_howTo</title><path class="cls-1" d="M48.721,55.339c0-5.873-8.408-10.633-18.78-10.633S11.16,49.466,11.16,55.339c0,5.087,6.316,9.334,14.747,10.38L29.941,68l4.033-2.284C42.406,64.673,48.721,60.426,48.721,55.339Z"/><path class="cls-2" d="M59.882,31.037C59.882,13.9,46.477,0,29.941,0S0,13.9,0,31.037C0,45.894,10.073,58.305,23.524,61.351L29.941,68l6.417-6.652C49.809,58.305,59.882,45.894,59.882,31.037Z"/><path class="cls-3" d="M28.233,21.336l-5.789-1.582h0l-2.181-.6a.6.6,0,0,0-.671.278,18.659,18.659,0,0,0-1.986,4.724c-.711,2.708-.59,5.03.349,6.717a4.692,4.692,0,0,0,2.327,2.1l-2.233,8.5L14.83,40.6a.606.606,0,0,0-.742.449.632.632,0,0,0,.432.769h0l3.8,1.038,3.806,1.04h0a.6.6,0,0,0,.156.021.611.611,0,0,0,.586-.469.632.632,0,0,0-.432-.769L19.223,41.8l2.231-8.5a4.676,4.676,0,0,0,.655.047c2.708,0,4.943-2.359,5.981-6.31a18.787,18.787,0,0,0,.595-5.105A.625.625,0,0,0,28.233,21.336Zm-1.315,5.37c-.885,3.37-2.683,5.382-4.809,5.382a3.527,3.527,0,0,1-.937-.129,3.489,3.489,0,0,1-2.166-1.712,6.548,6.548,0,0,1-.575-3.972,13.84,13.84,0,0,0,2.3.189,25.175,25.175,0,0,0,3.292-.269,12.455,12.455,0,0,1,3.053-.159Q27,26.375,26.918,26.706ZM27.3,24.8a13.083,13.083,0,0,0-3.424.148,17.179,17.179,0,0,1-5.232.09q.06-.269.133-.546A17.332,17.332,0,0,1,20.394,20.5l.965.264c-.175.349-.336.708-.462,1a.639.639,0,0,0,.308.831.587.587,0,0,0,.247.055.605.605,0,0,0,.554-.373c.2-.457.389-.862.56-1.183l4.909,1.342A17.7,17.7,0,0,1,27.3,24.8Z"/><path class="cls-3" d="M45.132,41.044a.606.606,0,0,0-.742-.449l-3.219.88-2.232-8.5a4.7,4.7,0,0,0,2.327-2.1c.939-1.687,1.06-4.009.349-6.717a18.659,18.659,0,0,0-1.986-4.724.6.6,0,0,0-.672-.278l-7.97,2.179a.625.625,0,0,0-.452.6,18.872,18.872,0,0,0,.474,4.613c0,.021.009.041.014.061.034.145.069.289.107.431,1.037,3.951,3.273,6.31,5.98,6.31h0a4.676,4.676,0,0,0,.655-.047L40,41.8l-3.209.878a.631.631,0,0,0-.432.769.61.61,0,0,0,.586.469.59.59,0,0,0,.155-.021l3.805-1.04h0L37.1,43.891l7.6-2.078A.633.633,0,0,0,45.132,41.044ZM31.745,22.431l7.08-1.936a17.335,17.335,0,0,1,1.618,3.995q.156.593.253,1.152a7.838,7.838,0,0,0-1.129-.028c-.066-.461-.162-.941-.243-1.313a.606.606,0,0,0-.727-.474.629.629,0,0,0-.457.753c.092.42.164.807.214,1.138-.275.033-.553.069-.834.106a16.432,16.432,0,0,1-5.411.062A17.615,17.615,0,0,1,31.745,22.431Zm5.366,9.657h0c-2.016,0-3.737-1.811-4.664-4.873a13.731,13.731,0,0,0,1.935.135,24.551,24.551,0,0,0,3.293-.277,11.281,11.281,0,0,1,3.171-.144,6.1,6.1,0,0,1-.631,3.318,3.489,3.489,0,0,1-2.166,1.712A3.538,3.538,0,0,1,37.111,32.088Z"/><path class="cls-3" d="M29.61,14.962a.619.619,0,0,0-.607.63v1.641a.607.607,0,1,0,1.214,0V15.592A.619.619,0,0,0,29.61,14.962Z"/><path class="cls-3" d="M26.6,18.686a.6.6,0,0,0,.524.311.587.587,0,0,0,.307-.087.642.642,0,0,0,.216-.861l-.8-1.422a.6.6,0,0,0-.831-.224.642.642,0,0,0-.216.861Z"/><path class="cls-3" d="M31.792,18.91A.583.583,0,0,0,32.1,19a.6.6,0,0,0,.525-.311l.8-1.422a.642.642,0,0,0-.216-.861.6.6,0,0,0-.831.224l-.805,1.422A.643.643,0,0,0,31.792,18.91Z"/><ellipse class="cls-3" cx="20.746" cy="23.647" rx="0.607" ry="0.629"/></svg>