<svg xmlns="http://www.w3.org/2000/svg" viewBox="0 0 45 45"><defs><style>.cls-1{fill:#ec407a;}.cls-2{fill:#fff;}</style></defs><title>marcel_lavigne_howTo</title><g id="BLOCS"><circle class="cls-1" cx="22.5" cy="22.5" r="22.5"/><path class="cls-2" d="M9.922,20.531l.988,1.52a.822.822,0,0,1,0,.9l-.988,1.52A2.59,2.59,0,0,0,11.167,28.3l1.692.648a.824.824,0,0,1,.529.727l.093,1.81a2.59,2.59,0,0,0,3.26,2.368l1.75-.47a.823.823,0,0,1,.855.278l1.139,1.409a2.592,2.592,0,0,0,4.03,0l1.139-1.409a.823.823,0,0,1,.855-.278l1.75.47a2.59,2.59,0,0,0,3.26-2.368l.093-1.81a.824.824,0,0,1,.529-.727l1.692-.648a2.59,2.59,0,0,0,1.245-3.832l-.988-1.52a.822.822,0,0,1,0-.9l.988-1.52A2.59,2.59,0,0,0,33.833,16.7l-1.692-.648a.824.824,0,0,1-.529-.727l-.093-1.81a2.59,2.59,0,0,0-3.26-2.368l-1.75.47a.824.824,0,0,1-.855-.277l-1.139-1.41a2.591,2.591,0,0,0-4.03,0h0l-1.139,1.41a.824.824,0,0,1-.855.277l-1.75-.47a2.59,2.59,0,0,0-3.26,2.368l-.093,1.81a.824.824,0,0,1-.529.727l-1.692.648A2.59,2.59,0,0,0,9.922,20.531ZM11.8,18.349l1.692-.648a2.593,2.593,0,0,0,1.661-2.286l.093-1.81a.824.824,0,0,1,1.037-.753l1.75.47a2.592,2.592,0,0,0,2.688-.873l1.139-1.409h0a.824.824,0,0,1,1.282,0l1.139,1.409a2.592,2.592,0,0,0,2.688.873l1.75-.47a.824.824,0,0,1,1.037.753l.093,1.81A2.593,2.593,0,0,0,31.509,17.7l1.693.648a.824.824,0,0,1,.4,1.219l-.988,1.519a2.6,2.6,0,0,0,0,2.826l.988,1.519a.824.824,0,0,1-.4,1.219l-1.692.648a2.593,2.593,0,0,0-1.661,2.286l-.093,1.81a.824.824,0,0,1-1.037.753l-1.75-.47a2.592,2.592,0,0,0-2.688.873L23.141,33.96a.824.824,0,0,1-1.282,0L20.72,32.551a2.591,2.591,0,0,0-2.688-.873l-1.75.47a.824.824,0,0,1-1.037-.753l-.093-1.81A2.593,2.593,0,0,0,13.491,27.3L11.8,26.651a.824.824,0,0,1-.395-1.219l.988-1.519a2.6,2.6,0,0,0,0-2.826L11.4,19.568A.824.824,0,0,1,11.8,18.349Z"/><path class="cls-2" d="M17.419,27.493a.885.885,0,0,0,1.249,0l8.245-8.245A.884.884,0,0,0,25.664,18l-8.245,8.245A.884.884,0,0,0,17.419,27.493Z"/><path class="cls-2" d="M18.927,21.273a1.767,1.767,0,1,0-1.767-1.767A1.769,1.769,0,0,0,18.927,21.273Z"/><path class="cls-2" d="M25.405,24.218a1.767,1.767,0,1,0,1.767,1.766A1.769,1.769,0,0,0,25.405,24.218Z"/></g></svg>