<svg xmlns="http://www.w3.org/2000/svg" viewBox="0 0 45 45"><defs><style>.cls-1{fill:#ec407a;}.cls-2{fill:#fff;}</style></defs><title>marcel_lavigne_howTo</title><g id="BLOCS"><circle class="cls-1" cx="22.5" cy="22.5" r="22.5"/><path class="cls-2" d="M35.2,20.219h-.613v-.614h.01a.744.744,0,1,0,0-1.488H33.182A.744.744,0,0,0,33.1,19.6v.619H31.9V15.274a.746.746,0,0,0-.607-.732l-3.475-.657a34.609,34.609,0,0,0-12.928,0l-3.475.657a.745.745,0,0,0-.606.732V26.653a.745.745,0,0,0,.606.732l3.475.658q1.152.218,2.307.357L15.81,32.521a.744.744,0,0,0,.468.943.734.734,0,0,0,.238.04A.746.746,0,0,0,17.221,33l.388-1.152H25.1L25.491,33a.746.746,0,0,0,.705.507.73.73,0,0,0,.238-.04.744.744,0,0,0,.468-.943L25.513,28.4q1.156-.139,2.307-.357l3.476-.658a.746.746,0,0,0,.606-.732V21.708h3.3a.346.346,0,0,1,.345.345v.632a.745.745,0,1,0,1.489,0v-.632A1.836,1.836,0,0,0,35.2,20.219Zm-9.4,6.643v-11.8c.194.026.387.053.58.083V26.78q-.289.044-.58.082Zm-9.462-.082V15.148c.193-.03.386-.057.58-.083v11.8q-.291-.039-.58-.082ZM27.866,15.409l2.547.482V26.037l-2.547.482ZM24.308,27.03a33.075,33.075,0,0,1-5.9,0V14.9a33.075,33.075,0,0,1,5.9,0ZM12.3,15.891l2.546-.482v11.11L12.3,26.037Zm9.056,12.76q1.318,0,2.636-.1l.609,1.807h-6.49l.608-1.807q1.318.1,2.637.1Zm0,0"/></g></svg>