<svg xmlns="http://www.w3.org/2000/svg" viewBox="0 0 30.849 27.716"><title>marcel_lavigne_howTo</title><g id="TEXTS"><path d="M14.058,6.1,8.313,4.587h0L6.148,4.016a.6.6,0,0,0-.667.266,17.5,17.5,0,0,0-1.97,4.523c-.706,2.592-.586,4.816.346,6.43a4.6,4.6,0,0,0,2.309,2.011L3.951,25.383.756,24.541a.6.6,0,0,0-.307,1.165h0l3.768.994,3.777,1h0a.626.626,0,0,0,.154.02A.6.6,0,0,0,8.3,26.531L5.116,25.69l2.215-8.135a4.746,4.746,0,0,0,.65.046c2.687,0,4.9-2.259,5.935-6.042a17.4,17.4,0,0,0,.591-4.888A.6.6,0,0,0,14.058,6.1Zm-1.3,5.141c-.878,3.226-2.662,5.153-4.772,5.153a3.644,3.644,0,0,1-.931-.124A3.442,3.442,0,0,1,4.9,14.633a6.081,6.081,0,0,1-.571-3.8,14.153,14.153,0,0,0,2.285.182,25.953,25.953,0,0,0,3.267-.258,12.8,12.8,0,0,1,3.03-.152C12.863,10.818,12.811,11.032,12.753,11.243Zm.379-1.827a13.451,13.451,0,0,0-3.4.142,17.683,17.683,0,0,1-5.192.087c.04-.173.083-.347.131-.523A16.22,16.22,0,0,1,6.279,5.3l.957.252c-.173.335-.333.678-.458.958a.6.6,0,0,0,.305.8.61.61,0,0,0,.245.052A.6.6,0,0,0,7.879,7c.2-.438.385-.826.555-1.133L13.306,7.15A16.369,16.369,0,0,1,13.132,9.416Z"/><path d="M30.829,24.97a.6.6,0,0,0-.736-.429l-3.195.842-2.215-8.137a4.6,4.6,0,0,0,2.309-2.011c.932-1.615,1.052-3.838.346-6.43a17.5,17.5,0,0,0-1.97-4.523.6.6,0,0,0-.667-.266L16.791,6.1a.6.6,0,0,0-.449.569,17.464,17.464,0,0,0,.471,4.417c0,.02.009.04.014.059.034.138.069.276.106.412,1.03,3.783,3.248,6.041,5.935,6.042h0a4.743,4.743,0,0,0,.649-.046l2.215,8.135-3.185.841a.6.6,0,0,0,.153,1.185.626.626,0,0,0,.154-.02l3.776-1h0l-3.777,1,7.545-1.99A.6.6,0,0,0,30.829,24.97ZM17.543,7.15,24.57,5.3a16.22,16.22,0,0,1,1.606,3.825q.155.567.25,1.1a8.005,8.005,0,0,0-1.12-.027c-.065-.441-.16-.9-.241-1.258a.6.6,0,0,0-1.175.267c.091.4.163.773.212,1.09-.273.031-.548.067-.827.1a16.893,16.893,0,0,1-5.37.059A16.318,16.318,0,0,1,17.543,7.15ZM22.869,16.4h0c-2,0-3.709-1.734-4.629-4.666a14.109,14.109,0,0,0,1.92.13,25.1,25.1,0,0,0,3.268-.266,11.634,11.634,0,0,1,3.148-.137,5.666,5.666,0,0,1-.627,3.176A3.445,3.445,0,0,1,23.8,16.272,3.642,3.642,0,0,1,22.869,16.4Z"/><path d="M15.424,0a.6.6,0,0,0-.6.6V2.174a.6.6,0,1,0,1.205,0V.6A.6.6,0,0,0,15.424,0Z"/><path d="M12.434,3.565a.6.6,0,0,0,.521.3.593.593,0,0,0,.3-.083.6.6,0,0,0,.215-.824l-.8-1.361a.6.6,0,0,0-1.04.61Z"/><path d="M17.59,3.779a.593.593,0,0,0,.3.083.6.6,0,0,0,.521-.3l.8-1.361a.6.6,0,1,0-1.04-.61l-.8,1.361A.6.6,0,0,0,17.59,3.779Z"/><circle cx="6.628" cy="8.315" r="0.603"/></g></svg>